<svg width="128" height="101" viewBox="0 0 128 101" fill="none" xmlns="http://www.w3.org/2000/svg">
<path fill-rule="evenodd" clip-rule="evenodd" d="M105.359 65.2507C105.359 65.2507 105.359 65.2507 105.359 65.2507C117.332 65.2507 127.037 55.5451 127.037 43.5726C127.037 31.6002 117.332 21.8946 105.359 21.8946C104.745 21.8946 104.137 21.9202 103.536 21.9703C99.0932 9.30122 87.0286 0.216583 72.8423 0.216583C54.8836 0.216583 40.3252 14.775 40.3252 32.7336C40.3252 50.6923 54.8836 65.2507 72.8423 65.2507L105.359 65.2507Z" fill="url(#paint0_linear)"/>
<g filter="url(#filter0_d)">
<circle cx="38.2038" cy="57.3171" r="36.1295" fill="white"/>
<circle cx="38.2038" cy="57.3171" r="36.1295" fill="url(#paint1_linear)"/>
<circle cx="74.3334" cy="69.3602" r="24.0864" fill="white"/>
<rect x="38.2036" y="69.3602" width="36.1295" height="24.0864" fill="white"/>
</g>
<defs>
<filter id="filter0_d" x="0.0742188" y="20.1875" width="104.346" height="80.2591" filterUnits="userSpaceOnUse" color-interpolation-filters="sRGB">
<feFlood flood-opacity="0" result="BackgroundImageFix"/>
<feColorMatrix in="SourceAlpha" type="matrix" values="0 0 0 0 0 0 0 0 0 0 0 0 0 0 0 0 0 0 127 0"/>
<feOffset dx="2" dy="3"/>
<feGaussianBlur stdDeviation="2"/>
<feColorMatrix type="matrix" values="0 0 0 0 0 0 0 0 0 0 0 0 0 0 0 0 0 0 0.06 0"/>
<feBlend mode="normal" in2="BackgroundImageFix" result="effect1_dropShadow"/>
<feBlend mode="normal" in="SourceGraphic" in2="effect1_dropShadow" result="shape"/>
</filter>
<linearGradient id="paint0_linear" x1="61.9978" y1="0.216584" x2="107.998" y2="73.6742" gradientUnits="userSpaceOnUse">
<stop offset="0.427083" stop-color="#ACACAC"/>
<stop offset="1" stop-color="#8D8D8D"/>
</linearGradient>
<linearGradient id="paint1_linear" x1="74.3333" y1="42.4402" x2="26.869" y2="61.5676" gradientUnits="userSpaceOnUse">
<stop stop-color="#D9D9D9"/>
<stop offset="1" stop-color="white" stop-opacity="0"/>
</linearGradient>
</defs>
</svg>
