<svg width="126" height="102" viewBox="0 0 126 102" fill="none" xmlns="http://www.w3.org/2000/svg">
<circle cx="52.2028" cy="33.0806" r="32.6305" fill="white"/>
<circle cx="52.2028" cy="33.0806" r="32.6305" fill="url(#paint0_linear)"/>
<circle cx="84.8333" cy="43.9574" r="21.7537" fill="white"/>
<rect x="52.2026" y="43.9574" width="32.6305" height="21.7537" fill="white"/>
<g filter="url(#filter0_d)">
<path fill-rule="evenodd" clip-rule="evenodd" d="M56.8849 63.2981C55.9213 63.2981 55.1707 62.462 55.2743 61.5039L57.7059 39.0165C57.8905 37.3094 55.6412 36.5258 54.7251 37.9781L37.2768 65.6399C36.5964 66.7186 37.3716 68.1242 38.647 68.1242H48.6572C49.6209 68.1242 50.3714 68.9603 50.2678 69.9183L47.8362 92.4058C47.6516 94.1129 49.901 94.8965 50.817 93.4442L68.2653 65.7824C68.9458 64.7036 68.1706 63.2981 66.8951 63.2981L56.8849 63.2981Z" fill="url(#paint1_linear)"/>
</g>
<defs>
<filter id="filter0_d" x="35.0244" y="36.2176" width="39.4933" height="64.987" filterUnits="userSpaceOnUse" color-interpolation-filters="sRGB">
<feFlood flood-opacity="0" result="BackgroundImageFix"/>
<feColorMatrix in="SourceAlpha" type="matrix" values="0 0 0 0 0 0 0 0 0 0 0 0 0 0 0 0 0 0 127 0"/>
<feOffset dx="2" dy="3"/>
<feGaussianBlur stdDeviation="2"/>
<feColorMatrix type="matrix" values="0 0 0 0 0 0 0 0 0 0 0 0 0 0 0 0 0 0 0.06 0"/>
<feBlend mode="normal" in2="BackgroundImageFix" result="effect1_dropShadow"/>
<feBlend mode="normal" in="SourceGraphic" in2="effect1_dropShadow" result="shape"/>
</filter>
<linearGradient id="paint0_linear" x1="84.8333" y1="19.6445" x2="41.9657" y2="36.9195" gradientUnits="userSpaceOnUse">
<stop stop-color="#EEEEEE"/>
<stop offset="1" stop-color="white" stop-opacity="0"/>
</linearGradient>
<linearGradient id="paint1_linear" x1="58.02" y1="94.2046" x2="58.02" y2="63.6679" gradientUnits="userSpaceOnUse">
<stop stop-color="#F4B729"/>
<stop offset="1" stop-color="#FECE23"/>
</linearGradient>
</defs>
</svg>
