<svg width="126" height="94" viewBox="0 0 126 94" fill="none" xmlns="http://www.w3.org/2000/svg">
<path fill-rule="evenodd" clip-rule="evenodd" d="M62.9852 6.76877C64.0898 6.76877 64.9852 7.6642 64.9852 8.76877V15.7753V17.9529L66.5248 16.4133L71.4792 11.4589C72.2602 10.6779 73.5266 10.6779 74.3076 11.4589C75.0887 12.2399 75.0887 13.5063 74.3076 14.2873L69.3533 19.2417L64.9852 23.6097V28.8152V33.3986C65.707 33.5849 66.4088 33.8738 67.0683 34.2652L69.5086 35.7136L71.9832 37.1028C72.6638 37.4849 73.2743 37.958 73.803 38.5019L77.6767 36.2654L82.1846 33.6628L83.7836 27.6954L85.597 20.9276C85.8829 19.8607 86.9796 19.2275 88.0465 19.5134C89.1134 19.7993 89.7466 20.8959 89.4607 21.9629L87.6473 28.7307L87.0835 30.8345L88.9699 29.7455L95.0377 26.2422C95.9943 25.6899 97.2175 26.0177 97.7698 26.9743C98.322 27.9308 97.9943 29.154 97.0377 29.7063L90.9699 33.2096L89.0835 34.2987L91.1873 34.8624L97.9551 36.6758C99.022 36.9617 99.6552 38.0583 99.3693 39.1253C99.0834 40.1922 97.9867 40.8254 96.9198 40.5395L90.152 38.7261L84.1844 37.127L79.6767 39.7295L75.7858 41.9759C75.9784 42.6827 76.0754 43.4218 76.0663 44.1751L76.0322 47.0127L76.0663 49.8504C76.0749 50.5642 75.9883 51.2653 75.8153 51.9382L79.6767 54.1676L84.1844 56.7701L90.152 55.1711L96.9198 53.3577C97.9867 53.0718 99.0834 53.7049 99.3693 54.7719C99.6552 55.8388 99.022 56.9355 97.9551 57.2214L91.1873 59.0348L89.0836 59.5985L90.9699 60.6875L97.0377 64.1908C97.9943 64.7431 98.322 65.9662 97.7698 66.9228C97.2175 67.8794 95.9943 68.2072 95.0377 67.6549L88.9699 64.1516L87.0835 63.0625L87.6473 65.1665L89.4607 71.9342C89.7466 73.0012 89.1134 74.0978 88.0465 74.3837C86.9795 74.6696 85.8829 74.0364 85.597 72.9695L83.7836 66.2017L82.1846 60.2343L77.6767 57.6317L73.8822 55.4409C73.3356 56.0196 72.698 56.5213 71.9832 56.9227L69.5086 58.3119L67.0683 59.7603C66.4088 60.1517 65.707 60.4406 64.9852 60.6269V65.0819V70.2874L69.3533 74.6554L74.3076 79.6098C75.0887 80.3908 75.0887 81.6571 74.3076 82.4382C73.5266 83.2192 72.2602 83.2192 71.4792 82.4382L66.5248 77.4838L64.9852 75.9442V78.1218V85.1283C64.9852 86.2329 64.0898 87.1283 62.9852 87.1283C61.8807 87.1283 60.9852 86.2329 60.9852 85.1283V78.1218V75.9433L59.4448 77.4838L54.4904 82.4382C53.7094 83.2192 52.443 83.2192 51.662 82.4382C50.8809 81.6571 50.8809 80.3908 51.662 79.6098L56.6163 74.6554L60.9852 70.2865V65.0819V60.627C60.2633 60.4407 59.5615 60.1518 58.9019 59.7603L56.4615 58.3118L53.987 56.9227C53.2466 56.507 52.5892 55.9837 52.0298 55.3787L48.1515 57.6179L43.644 60.2202L42.045 66.1879L40.2316 72.9557C39.9457 74.0226 38.849 74.6558 37.7821 74.3699C36.7152 74.084 36.082 72.9874 36.3679 71.9204L38.1813 65.1527L38.7451 63.0485L36.8583 64.1378L30.7904 67.6411C29.8338 68.1934 28.6107 67.8656 28.0584 66.909C27.5061 65.9525 27.8338 64.7293 28.7904 64.177L34.8583 60.6737L36.7447 59.5846L34.6413 59.021L27.8735 57.2075C26.8066 56.9216 26.1734 55.825 26.4593 54.758C26.7452 53.6911 27.8418 53.0579 28.9088 53.3438L35.6765 55.1572L41.6439 56.7562L46.1515 54.1538L50.1338 51.8546C49.9748 51.2073 49.8955 50.5347 49.9038 49.8504L49.938 47.0127L49.9038 44.1751C49.895 43.4512 49.9843 42.7405 50.1621 42.0589L46.1515 39.7434L41.6439 37.1409L35.6765 38.7399L28.9088 40.5533C27.8418 40.8392 26.7452 40.206 26.4593 39.1391C26.1734 38.0722 26.8066 36.9755 27.8735 36.6896L34.6413 34.8762L36.7447 34.3126L34.8583 33.2234L28.7904 29.7202C27.8338 29.1679 27.5061 27.9447 28.0584 26.9881C28.6107 26.0315 29.8338 25.7038 30.7904 26.2561L36.8583 29.7593L38.7451 30.8487L38.1813 28.7445L36.3679 21.9767C36.082 20.9098 36.7152 19.8131 37.7821 19.5273C38.849 19.2414 39.9457 19.8745 40.2316 20.9415L42.045 27.7092L43.644 33.6769L48.1515 36.2793L52.1079 38.5635C52.6501 37.9937 53.2808 37.4993 53.987 37.1028L56.4615 35.7136L58.9019 34.2652C59.5615 33.8737 60.2633 33.5848 60.9852 33.3985V28.8152V23.6106L56.6163 19.2417L51.662 14.2873C50.8809 13.5063 50.8809 12.2399 51.662 11.4589C52.443 10.6779 53.7094 10.6779 54.4904 11.4589L59.4448 16.4133L60.9852 17.9537V15.7753V8.76877C60.9852 7.6642 61.8807 6.76877 62.9852 6.76877ZM72.0666 49.8986C72.0734 50.4557 71.964 50.9973 71.7556 51.494C71.6802 51.5834 71.6116 51.6807 71.551 51.7856C71.473 51.9208 71.4125 52.0613 71.3689 52.2044C71.0274 52.7039 70.5714 53.128 70.025 53.4347L67.5295 54.8357L67.5085 54.8475L67.4877 54.8598L65.0267 56.3205C64.4773 56.6466 63.8693 56.8303 63.2539 56.8717C63.166 56.8599 63.0764 56.8538 62.9852 56.8538C62.8941 56.8538 62.8044 56.8599 62.7164 56.8718C62.1009 56.8304 61.4929 56.6466 60.9435 56.3205L58.4824 54.8598L58.4617 54.8475L58.4406 54.8357L55.9451 53.4347C54.6689 52.7182 53.8858 51.362 53.9035 49.8986L53.938 47.0368L53.9383 47.0127L53.938 46.9886L53.9035 44.1269C53.8858 42.6635 54.6689 41.3072 55.9451 40.5908L58.4406 39.1898L58.4617 39.178L58.4824 39.1657L60.9435 37.7049C62.202 36.9579 63.7681 36.9579 65.0267 37.7049L67.4877 39.1657L67.5085 39.178L67.5295 39.1898L70.025 40.5908C71.3012 41.3072 72.0843 42.6635 72.0666 44.1269L72.0322 46.9886L72.0319 47.0127L72.0322 47.0368L72.0666 49.8986Z" fill="url(#paint0_linear)"/>
<defs>
<linearGradient id="paint0_linear" x1="32.0152" y1="-1.4223" x2="99.3947" y2="94.8954" gradientUnits="userSpaceOnUse">
<stop stop-color="#7BDCFB"/>
<stop offset="0.505208" stop-color="#A6CAFC"/>
<stop offset="1" stop-color="#8FA7FC"/>
</linearGradient>
</defs>
</svg>
