<svg width="126" height="101" viewBox="0 0 126 101" fill="none" xmlns="http://www.w3.org/2000/svg">
<circle cx="73.8742" cy="36.2453" r="36.1232" fill="url(#paint0_linear)"/>
<g filter="url(#filter0_d)">
<circle cx="44.8425" cy="47.3206" r="25.2849" fill="white"/>
<circle cx="44.8425" cy="47.3206" r="25.2849" fill="url(#paint1_linear)"/>
<circle cx="70.1276" cy="55.7489" r="16.8566" fill="white"/>
<rect x="44.8428" y="55.7489" width="25.2849" height="16.8566" fill="white"/>
</g>
<g filter="url(#filter1_d)">
<path fill-rule="evenodd" clip-rule="evenodd" d="M48.8769 70.7356C47.9133 70.7356 47.1627 69.8995 47.2663 68.9415L48.9375 53.4862C49.1221 51.7791 46.8728 50.9955 45.9567 52.4478L33.6294 71.9911C32.9489 73.0698 33.7241 74.4753 34.9996 74.4753H41.6889C42.6525 74.4753 43.4031 75.3114 43.2995 76.2695L41.6283 91.7247C41.4437 93.4318 43.693 94.2154 44.6091 92.7632L56.9364 73.2199C57.6168 72.1411 56.8416 70.7356 55.5662 70.7356L48.8769 70.7356Z" fill="url(#paint2_linear)"/>
</g>
<defs>
<filter id="filter0_d" x="17.5576" y="21.0356" width="75.4266" height="58.5699" filterUnits="userSpaceOnUse" color-interpolation-filters="sRGB">
<feFlood flood-opacity="0" result="BackgroundImageFix"/>
<feColorMatrix in="SourceAlpha" type="matrix" values="0 0 0 0 0 0 0 0 0 0 0 0 0 0 0 0 0 0 127 0"/>
<feOffset dx="2" dy="3"/>
<feGaussianBlur stdDeviation="2"/>
<feColorMatrix type="matrix" values="0 0 0 0 0 0 0 0 0 0 0 0 0 0 0 0 0 0 0.06 0"/>
<feBlend mode="normal" in2="BackgroundImageFix" result="effect1_dropShadow"/>
<feBlend mode="normal" in="SourceGraphic" in2="effect1_dropShadow" result="shape"/>
</filter>
<filter id="filter1_d" x="31.377" y="50.6873" width="31.8119" height="49.8363" filterUnits="userSpaceOnUse" color-interpolation-filters="sRGB">
<feFlood flood-opacity="0" result="BackgroundImageFix"/>
<feColorMatrix in="SourceAlpha" type="matrix" values="0 0 0 0 0 0 0 0 0 0 0 0 0 0 0 0 0 0 127 0"/>
<feOffset dx="2" dy="3"/>
<feGaussianBlur stdDeviation="2"/>
<feColorMatrix type="matrix" values="0 0 0 0 0 0 0 0 0 0 0 0 0 0 0 0 0 0 0.06 0"/>
<feBlend mode="normal" in2="BackgroundImageFix" result="effect1_dropShadow"/>
<feBlend mode="normal" in="SourceGraphic" in2="effect1_dropShadow" result="shape"/>
</filter>
<linearGradient id="paint0_linear" x1="56.3429" y1="0.122133" x2="97.4124" y2="66.2739" gradientUnits="userSpaceOnUse">
<stop offset="0.333333" stop-color="#FFD540"/>
<stop offset="1" stop-color="#F07707"/>
</linearGradient>
<linearGradient id="paint1_linear" x1="70.1275" y1="36.9091" x2="36.91" y2="50.2953" gradientUnits="userSpaceOnUse">
<stop stop-color="#EEEEEE"/>
<stop offset="1" stop-color="white" stop-opacity="0"/>
</linearGradient>
<linearGradient id="paint2_linear" x1="49.2515" y1="93.5236" x2="49.2515" y2="71.1055" gradientUnits="userSpaceOnUse">
<stop stop-color="#F4B729"/>
<stop offset="1" stop-color="#FECE23"/>
</linearGradient>
</defs>
</svg>
